<svg width="29" height="30" viewBox="0 0 29 30" fill="none" xmlns="http://www.w3.org/2000/svg">
<path d="M8.13577 18.9658H22.2651C23.1286 18.9658 23.835 19.7341 23.835 20.6731C23.835 21.612 23.1286 22.3803 22.2651 22.3803H6.56584C5.70238 22.3803 4.99592 21.612 4.99592 20.6731V3.60055H1.85606C0.9926 3.60055 0.286133 2.83229 0.286133 1.8933C0.286133 0.954313 0.9926 0.18605 1.85606 0.18605H6.56584C7.4293 0.18605 8.13577 0.954313 8.13577 1.8933V5.3078H28.5448L22.2651 17.2586H8.13577V18.9658ZM7.35081 24.0876C8.65385 24.0876 9.7057 25.2314 9.7057 26.6484C9.7057 28.0654 8.65385 29.2093 7.35081 29.2093C6.04777 29.2093 4.99592 28.0654 4.99592 26.6484C4.99592 25.2314 6.04777 24.0876 7.35081 24.0876ZM21.4802 24.0876C22.7832 24.0876 23.835 25.2314 23.835 26.6484C23.835 28.0654 22.7832 29.2093 21.4802 29.2093C20.1771 29.2093 19.1253 28.0654 19.1253 26.6484C19.1253 25.2314 20.1771 24.0876 21.4802 24.0876Z" fill="black"/>
</svg>
