<svg width="24" height="24" viewBox="0 0 24 24" fill="none" xmlns="http://www.w3.org/2000/svg">
<path d="M22.7708 8.03866L16.2168 7.04035L13.2875 0.834866C12.7626 -0.271247 11.2419 -0.285308 10.7125 0.834866L7.78319 7.04035L1.22918 8.03866C0.053853 8.21677 -0.417174 9.73064 0.435161 10.5977L5.17683 15.4253L4.05534 22.2447C3.85347 23.4774 5.09609 24.4007 6.13683 23.8242L12 20.6043L17.8632 23.8242C18.9039 24.396 20.1465 23.4774 19.9447 22.2447L18.8232 15.4253L23.5648 10.5977C24.4172 9.73064 23.9461 8.21677 22.7708 8.03866ZM16.5129 14.6378L17.5761 21.1245L12 18.064L6.42394 21.1245L7.48711 14.6378L2.97422 10.0447L9.20973 9.09791L12 3.19239L14.7903 9.09791L21.0258 10.0447L16.5129 14.6378Z" fill="white"/>
</svg>
