<svg width="24" height="24" viewBox="0 0 24 24" fill="none" xmlns="http://www.w3.org/2000/svg">
<path d="M22.7708 8.03953L16.217 7.04063L13.2883 0.834844C13.025 0.280313 12.5114 0 11.9978 0C11.4874 0 10.9774 0.276563 10.7132 0.834844L7.78354 7.04016L1.22929 8.03813C0.0539301 8.21625 -0.417109 9.72984 0.43497 10.597L5.17626 15.4252L4.05418 22.2445C3.89478 23.2186 4.63761 24 5.46954 24C5.69028 24 5.9173 23.9452 6.13535 23.8242L11.9987 20.6048L17.8616 23.8252C18.0792 23.9447 18.3058 23.9991 18.5257 23.9991C19.3585 23.9991 20.1027 23.2205 19.9433 22.2459L18.8225 15.4261L23.5647 10.5989C24.4172 9.73172 23.9462 8.21766 22.7708 8.03953ZM17.3199 13.8145L16.5085 14.6405L16.7002 15.8067L17.5742 21.1247L13.0012 18.6127L11.9992 18.0623L12.0005 3.19406L14.2854 8.03578L14.786 9.09656L15.9058 9.26719L21.0206 10.0467L17.3199 13.8145Z" fill="white"/>
</svg>
