<svg width="150" height="150" viewBox="0 0 150 150" fill="none" xmlns="http://www.w3.org/2000/svg">
<circle cx="75" cy="75" r="75" fill="#E5DF30"/>
<path d="M61.6667 83.8235H91.6667C93.5 83.8235 95 85.4118 95 87.3529C95 89.2941 93.5 90.8824 91.6667 90.8824H58.3333C56.5 90.8824 55 89.2941 55 87.3529V52.0588H48.3333C46.5 52.0588 45 50.4706 45 48.5294C45 46.5882 46.5 45 48.3333 45H58.3333C60.1667 45 61.6667 46.5882 61.6667 48.5294V55.5882H105L91.6667 80.2941H61.6667V83.8235ZM60 94.4118C62.7667 94.4118 65 96.7765 65 99.7059C65 102.635 62.7667 105 60 105C57.2333 105 55 102.635 55 99.7059C55 96.7765 57.2333 94.4118 60 94.4118ZM90 94.4118C92.7667 94.4118 95 96.7765 95 99.7059C95 102.635 92.7667 105 90 105C87.2333 105 85 102.635 85 99.7059C85 96.7765 87.2333 94.4118 90 94.4118Z" fill="black"/>
</svg>
