<svg width="40" height="40" viewBox="0 0 40 40" fill="none" xmlns="http://www.w3.org/2000/svg">
<g clip-path="url(#clip0_402_3296)">
<path d="M20.0002 13.3334C18.2321 13.3334 16.5364 14.0358 15.2861 15.286C14.0359 16.5362 13.3335 18.2319 13.3335 20C13.3335 21.7682 14.0359 23.4638 15.2861 24.7141C16.5364 25.9643 18.2321 26.6667 20.0002 26.6667C21.7683 26.6667 23.464 25.9643 24.7142 24.7141C25.9644 23.4638 26.6668 21.7682 26.6668 20C26.6668 18.2319 25.9644 16.5362 24.7142 15.286C23.464 14.0358 21.7683 13.3334 20.0002 13.3334Z" fill="white"/>
<path fill-rule="evenodd" clip-rule="evenodd" d="M12 0C8.8174 0 5.76516 1.26428 3.51472 3.51472C1.26428 5.76516 0 8.8174 0 12L0 28C0 31.1826 1.26428 34.2348 3.51472 36.4853C5.76516 38.7357 8.8174 40 12 40H28C31.1826 40 34.2348 38.7357 36.4853 36.4853C38.7357 34.2348 40 31.1826 40 28V12C40 8.8174 38.7357 5.76516 36.4853 3.51472C34.2348 1.26428 31.1826 0 28 0L12 0ZM10.6667 20C10.6667 17.5246 11.65 15.1507 13.4003 13.4003C15.1507 11.65 17.5246 10.6667 20 10.6667C22.4754 10.6667 24.8493 11.65 26.5997 13.4003C28.35 15.1507 29.3333 17.5246 29.3333 20C29.3333 22.4754 28.35 24.8493 26.5997 26.5997C24.8493 28.35 22.4754 29.3333 20 29.3333C17.5246 29.3333 15.1507 28.35 13.4003 26.5997C11.65 24.8493 10.6667 22.4754 10.6667 20ZM29.3333 10.6667H32V8H29.3333V10.6667Z" fill="white"/>
</g>
<defs>
<clipPath id="clip0_402_3296">
<rect width="40" height="40" fill="white"/>
</clipPath>
</defs>
</svg>
