<svg width="40" height="40" viewBox="0 0 40 40" fill="none" xmlns="http://www.w3.org/2000/svg">
<path d="M20 0C15.1674 0 11.25 4.40703 11.25 9.84375C11.25 14.2391 16.9688 22.25 19.1597 25.1578C19.6035 25.7469 20.3972 25.7469 20.8403 25.1578C23.0313 22.25 28.75 14.2391 28.75 9.84375C28.75 4.40703 24.8326 0 20 0ZM20 13.125C18.3889 13.125 17.0833 11.6563 17.0833 9.84375C17.0833 8.03125 18.3889 6.5625 20 6.5625C21.6111 6.5625 22.9167 8.03125 22.9167 9.84375C22.9167 11.6563 21.6111 13.125 20 13.125ZM1.39722 16.8711C0.984846 17.0566 0.631341 17.3769 0.382298 17.7907C0.133256 18.2044 9.87644e-05 18.6925 0 19.1922L0 38.7484C0 39.6328 0.79375 40.2375 1.52361 39.9094L11.1111 35V16.7906C10.4972 15.5422 9.99514 14.3266 9.63542 13.1641L1.39722 16.8711ZM20 28.0992C19.0229 28.0992 18.0986 27.6164 17.4646 26.7742C16.0993 24.9617 14.6472 22.8977 13.3333 20.7805V34.9992L26.6667 39.9992V20.7812C25.3528 22.8977 23.9014 24.9625 22.5354 26.775C21.9014 27.6164 20.9771 28.0992 20 28.0992ZM38.4764 12.5906L28.8889 17.5V40L38.6028 35.6289C39.0152 35.4434 39.3688 35.1232 39.6178 34.7094C39.8669 34.2957 40 33.8075 40 33.3078V13.7516C40 12.8672 39.2063 12.2625 38.4764 12.5906Z" fill="black"/>
</svg>
