<svg width="40" height="40" viewBox="0 0 40 40" fill="none" xmlns="http://www.w3.org/2000/svg">
<path d="M40 12.6316C40.0002 12.2495 39.9013 11.8746 39.714 11.5474L34.296 2.04211C33.9391 1.42072 33.4362 0.906469 32.8359 0.548826C32.2355 0.191182 31.5578 0.00218007 30.868 0H9.132C7.736 0 6.422 0.783158 5.704 2.04421L0.286 11.5474C0.0986992 11.8746 -0.000187783 12.2495 2.67708e-07 12.6316C2.67708e-07 14.7474 0.772 16.6611 2 18.1432V37.8947C2 38.4531 2.21071 38.9886 2.58579 39.3834C2.96086 39.7782 3.46957 40 4 40H20C20.5304 40 21.0391 39.7782 21.4142 39.3834C21.7893 38.9886 22 38.4531 22 37.8947V27.3684H30V37.8947C30 38.4531 30.2107 38.9886 30.5858 39.3834C30.9609 39.7782 31.4696 40 32 40H36C36.5304 40 37.0391 39.7782 37.4142 39.3834C37.7893 38.9886 38 38.4531 38 37.8947V18.1432C39.228 16.6611 40 14.7474 40 12.6316ZM35.968 13.16C35.845 14.1766 35.3742 15.1113 34.6439 15.789C33.9135 16.4667 32.9736 16.8411 32 16.8421C29.794 16.8421 28 14.9537 28 12.6316C28 12.4884 27.95 12.3621 27.922 12.2274L27.962 12.2189L26.44 4.21053H30.868L35.968 13.16ZM16.014 12.7684L17.638 4.21053H22.36L23.986 12.7684C23.916 15.0274 22.16 16.8421 20 16.8421C17.84 16.8421 16.084 15.0274 16.014 12.7684ZM9.132 4.21053H13.56L12.04 12.2189L12.08 12.2274C12.05 12.3621 12 12.4884 12 12.6316C12 14.9537 10.206 16.8421 8 16.8421C7.02638 16.8411 6.08647 16.4667 5.35612 15.789C4.62577 15.1113 4.15504 14.1766 4.032 13.16L9.132 4.21053ZM16 29.4737H8V23.1579H16V29.4737Z" fill="black"/>
</svg>
