<svg width="40" height="40" viewBox="0 0 40 40" fill="none" xmlns="http://www.w3.org/2000/svg">
<path d="M27.1426 12.2581C25.973 5.05645 23.2144 0 20.004 0C16.7937 0 14.0351 5.05645 12.8655 12.2581H27.1426ZM12.2605 20C12.2605 21.7903 12.3573 23.5081 12.5267 25.1613H27.4733C27.6427 23.5081 27.7395 21.7903 27.7395 20C27.7395 18.2097 27.6427 16.4919 27.4733 14.8387H12.5267C12.3573 16.4919 12.2605 18.2097 12.2605 20ZM38.4513 12.2581C36.1444 6.78226 31.4741 2.54839 25.7068 0.83871C27.6749 3.56452 29.03 7.66935 29.7399 12.2581H38.4513ZM14.2932 0.83871C8.53398 2.54839 3.85562 6.78226 1.55677 12.2581H10.2682C10.97 7.66935 12.3251 3.56452 14.2932 0.83871ZM39.3144 14.8387H30.0625C30.2319 16.5323 30.3287 18.2661 30.3287 20C30.3287 21.7339 30.2319 23.4677 30.0625 25.1613H39.3063C39.75 23.5081 40 21.7903 40 20C40 18.2097 39.75 16.4919 39.3144 14.8387ZM9.67937 20C9.67937 18.2661 9.77617 16.5323 9.94555 14.8387H0.693688C0.258117 16.4919 0 18.2097 0 20C0 21.7903 0.258117 23.5081 0.693688 25.1613H9.93749C9.77616 23.4677 9.67937 21.7339 9.67937 20ZM12.8655 27.7419C14.0351 34.9435 16.7937 40 20.004 40C23.2144 40 25.973 34.9435 27.1426 27.7419H12.8655ZM25.7149 39.1613C31.4741 37.4516 36.1525 33.2177 38.4594 27.7419H29.7479C29.0381 32.3306 27.683 36.4355 25.7149 39.1613ZM1.55677 27.7419C3.86368 33.2177 8.53398 37.4516 14.3013 39.1613C12.3331 36.4355 10.978 32.3306 10.2682 27.7419H1.55677Z" fill="black"/>
</svg>
