<svg width="35" height="41" viewBox="0 0 35 41" fill="none" xmlns="http://www.w3.org/2000/svg">
<path d="M31.5 0.5C33.4425 0.5 35 2.725 35 5.5V35.5C35 38.275 33.4425 40.5 31.5 40.5H3.5C1.5575 40.5 0 38.275 0 35.5V5.5C0 2.725 1.5575 0.5 3.5 0.5H31.5ZM11.375 28V13H9.1875V21.75L4.8125 13H2.625V28H4.8125V19.25L9.275 28H11.375ZM20.125 16.15V13H13.125V28H20.125V24.875H15.75V22.1H20.125V18.95H15.75V16.15H20.125ZM32.375 25.5V13H30.1875V24.25H28.2275V15.5H26.04V24.25H24.0625V13H21.875V25.5C21.875 26.163 22.0594 26.7989 22.3876 27.2678C22.7158 27.7366 23.1609 28 23.625 28H30.625C31.0891 28 31.5342 27.7366 31.8624 27.2678C32.1906 26.7989 32.375 26.163 32.375 25.5Z" fill="#E5DF30"/>
</svg>
