<svg width="36" height="41" viewBox="0 0 36 41" fill="none" xmlns="http://www.w3.org/2000/svg">
<path d="M32.1748 18.7227C31.5999 18.0561 30.9001 17.4783 30.2502 16.9005C28.5755 15.5671 26.6758 14.6115 25.0761 13.2115C21.3518 9.96694 20.527 4.61123 22.9015 0.5C20.527 1.01113 18.4524 2.16671 16.6777 3.43342C10.2039 8.05577 7.65433 16.2116 10.7038 23.2118C10.8038 23.434 10.9037 23.6562 10.9037 23.9451C10.9037 24.434 10.5288 24.8785 10.0289 25.0563C9.454 25.2785 8.85411 25.1451 8.3792 24.7896C8.23649 24.6847 8.1177 24.5564 8.02926 24.4118C5.20478 21.2339 4.75486 16.6782 6.65451 13.0337C2.48028 16.056 0.205696 21.1673 0.530636 25.9896C0.680609 27.1008 0.830581 28.2119 1.2555 29.323C1.60544 30.6564 2.28032 31.9898 3.03018 33.1676C5.72968 37.0122 10.4038 39.7678 15.4279 40.3234C20.7769 40.9234 26.5009 40.0567 30.6001 36.7677C35.1743 33.0787 36.774 27.1674 34.4244 22.1006L34.0995 21.5228C33.5746 20.5006 32.1748 18.7227 32.1748 18.7227ZM24.2763 32.7231C23.5764 33.2565 22.4266 33.8343 21.5268 34.0565C18.7273 34.9454 15.9278 33.7009 14.2781 32.2342C17.2526 31.612 19.0272 29.6564 19.5522 27.6786C19.9771 25.9007 19.1772 24.434 18.8523 22.7229C18.5523 21.0784 18.6023 19.6783 19.2772 18.1449C19.7521 18.9894 20.252 19.8339 20.8519 20.5006C22.7766 22.7229 25.801 23.7007 26.4509 26.723C26.5509 27.0341 26.6009 27.3452 26.6009 27.6786C26.6758 29.5008 25.776 31.5009 24.2763 32.7231Z" fill="#FBC528"/>
</svg>
