<svg width="35" height="41" viewBox="0 0 35 41" fill="none" xmlns="http://www.w3.org/2000/svg">
<g clip-path="url(#clip0_479_1320)">
<path d="M33.3594 0.5H20.2344C19.3332 0.5 18.071 1.0975 17.4344 1.825L1.16159 20.4225C0.854753 20.7748 0.682495 21.2517 0.682495 21.7488C0.682495 22.2458 0.854753 22.7227 1.16159 23.075L15.2469 39.1725C15.5552 39.5232 15.9724 39.72 16.4074 39.72C16.8423 39.72 17.2596 39.5232 17.5678 39.1725L33.8407 20.575C34.4794 19.845 35 18.405 35 17.375V2.375C34.9983 1.87833 34.8249 1.40256 34.5176 1.05136C34.2103 0.700153 33.794 0.501975 33.3594 0.5ZM25.1563 15.5C24.7252 15.4998 24.2984 15.4026 23.9003 15.214C23.5021 15.0253 23.1403 14.7489 22.8356 14.4004C22.5309 14.052 22.2893 13.6383 22.1245 13.1831C21.9596 12.728 21.8749 12.2401 21.875 11.7475C21.8752 11.2549 21.9602 10.7671 22.1253 10.3121C22.2904 9.857 22.5323 9.44355 22.8372 9.09533C23.1421 8.74711 23.504 8.47094 23.9023 8.28257C24.3006 8.0942 24.7274 7.99734 25.1585 7.9975C26.029 7.99783 26.8638 8.39337 27.4791 9.0971C28.0945 9.80083 28.44 10.7551 28.4397 11.75C28.4394 12.7449 28.0933 13.6989 27.4776 14.4022C26.8618 15.1054 26.0268 15.5003 25.1563 15.5Z" fill="white"/>
</g>
<defs>
<clipPath id="clip0_479_1320">
<rect width="35" height="40" fill="white" transform="translate(0 0.5)"/>
</clipPath>
</defs>
</svg>
