<svg width="60" height="40" viewBox="0 0 60 40" fill="none" xmlns="http://www.w3.org/2000/svg">
<mask id="path-1-inside-1_322_1786" fill="white">
<path fill-rule="evenodd" clip-rule="evenodd" d="M60 0H0V16.0417L0.041748 16L24.0417 40H60V0Z"/>
</mask>
<path fill-rule="evenodd" clip-rule="evenodd" d="M60 0H0V16.0417L0.041748 16L24.0417 40H60V0Z" fill="black"/>
<path d="M0 0V-1H-1V0H0ZM60 0H61V-1H60V0ZM0 16.0417H-1V18.456L0.707107 16.7489L0 16.0417ZM0.041748 16L0.748855 15.2929L0.041748 14.5858L-0.665359 15.2929L0.041748 16ZM24.0417 40L23.3346 40.7071L23.6275 41H24.0417V40ZM60 40V41H61V40H60ZM0 1H60V-1H0V1ZM1 16.0417V0H-1V16.0417H1ZM0.707107 16.7489L0.748855 16.7071L-0.665359 15.2929L-0.707107 15.3346L0.707107 16.7489ZM-0.665359 16.7071L23.3346 40.7071L24.7489 39.2929L0.748855 15.2929L-0.665359 16.7071ZM60 39H24.0417V41H60V39ZM59 0V40H61V0H59Z" fill="#E5DF30" mask="url(#path-1-inside-1_322_1786)"/>
<path d="M18 20L28 25.7735V14.2265L18 20ZM54 19L27 19V21L54 21V19Z" fill="white"/>
</svg>
