<svg width="60" height="40" viewBox="0 0 60 40" fill="none" xmlns="http://www.w3.org/2000/svg">
<mask id="path-1-inside-1_322_1787" fill="white">
<path fill-rule="evenodd" clip-rule="evenodd" d="M60 16.042L60 0L3.49691e-06 -5.24537e-06L0 40L36.042 40L60 16.042Z"/>
</mask>
<path fill-rule="evenodd" clip-rule="evenodd" d="M60 16.042L60 0L3.49691e-06 -5.24537e-06L0 40L36.042 40L60 16.042Z" fill="black"/>
<path d="M60 0L61 8.74228e-08L61 -1L60 -1L60 0ZM60 16.042L60.7071 16.7491L61 16.4562L61 16.042L60 16.042ZM3.49691e-06 -5.24537e-06L3.58433e-06 -1.00001L-0.999996 -1.00001L-0.999997 -5.33279e-06L3.49691e-06 -5.24537e-06ZM0 40L-1 40L-1 41L-8.74228e-08 41L0 40ZM36.042 40L36.042 41L36.4562 41L36.7491 40.7071L36.042 40ZM59 -8.74228e-08L59 16.042L61 16.042L61 8.74228e-08L59 -8.74228e-08ZM3.40949e-06 0.999995L60 1L60 -1L3.58433e-06 -1.00001L3.40949e-06 0.999995ZM1 40L1 -5.15794e-06L-0.999997 -5.33279e-06L-1 40L1 40ZM36.042 39L8.74228e-08 39L-8.74228e-08 41L36.042 41L36.042 39ZM36.7491 40.7071L60.7071 16.7491L59.2929 15.3349L35.3349 39.2929L36.7491 40.7071Z" fill="#E5DF30" mask="url(#path-1-inside-1_322_1787)"/>
<path d="M42 20L32 14.2265L32 25.7735L42 20ZM6 21L33 21L33 19L6 19L6 21Z" fill="white"/>
</svg>
