<?xml version="1.0" encoding="utf-8"?>
<!-- Generator: Adobe Illustrator 26.0.3, SVG Export Plug-In . SVG Version: 6.00 Build 0)  -->
<svg version="1.1" id="圖層_2_00000132787575638711536110000000757859174091008951_"
	 xmlns="http://www.w3.org/2000/svg" xmlns:xlink="http://www.w3.org/1999/xlink" x="0px" y="0px" viewBox="0 0 260 90"
	 style="enable-background:new 0 0 260 90;" xml:space="preserve">
<style type="text/css">
	.st0{fill:#14BDCC;}
</style>
<g>
	<path class="st0" d="M10.1,31.5c-1,3.8-1.9,7-2.7,9.6L4,40.6c0.2-0.6,0.5-1.5,0.8-2.7c1-2.9,1.7-5.2,2.1-6.8L10.1,31.5z M25.3,11.6
		L26,7.7h4.4l0.9-2.2l5,0.4l-0.8,1.8H44l-1,5.7h2.2l-0.7,3.9H22.7l0.5-2.9c-0.6,0.7-1.6,1.9-3,3.5c-1.6,1.8-2.8,3.1-3.6,4.1l3.2-1
		c0.1,0.9,0.3,2.3,0.6,4.2c0.3,1.8,0.5,3.2,0.6,4.2l-3.9,1l-0.2-2.1c-0.3,0-0.6,0-0.9,0L13.5,42H8.9l2.4-13.4
		c-0.1,0.1-0.3,0.1-0.5,0.1c-1.1,0-2.2,0.1-3.2,0.5l-0.8-4.6h2.1c1.4-1.4,2.9-3.2,4.7-5.4c-1-0.9-2.8-2.3-5.1-4.2
		c-0.2-0.1-0.3-0.2-0.4-0.3l3.2-3.4l0.8,0.6c1.1-1.4,2.6-3.4,4.2-6.2L21,7.3c-2,2.6-3.9,4.9-5.8,7.1l1.5,1.1c1.3-1.5,2.5-3,3.6-4.5
		l3.9,2.6H28l0.6-1.8C28.6,11.6,25.3,11.6,25.3,11.6z M16.3,24.2l-0.3-1.8l-1.7,1.8H16.3z M23.6,18.5h19.1l-1.6,9h-5.8L35,28.9h6.8
		l-0.7,3.9h-6.8L34,34.8h7.3l-0.6,3.6h-7.3l-0.6,3.3h-5.1l0.6-3.3h-9.2l0.1,0.3L16,39.5c0-0.4,0-1,0-1.7c-0.1-3.1-0.3-5.3-0.5-6.8
		l2.8-0.6c0.3,2.7,0.6,5,0.7,6.9l0.5-2.7h1.2l1-5.9h8.1l0.2-1.4h-8.1L23.6,18.5z M25.6,32.8l-0.3,2h3.6l0.3-2H25.6z M28.1,22.3
		l-0.3,1.6h9l0.3-1.6H28.1z M38.2,11.6h-4.3l-0.8,1.8h4.8L38.2,11.6z"/>
	<path class="st0" d="M11.7,82.1H5.5l3.6-20.3h27.6l-1.8-1.5c-6.3,0.1-15.1,0.3-26.2,0.6l0.2-4.3H12c1-0.8,2.2-1.7,3.5-2.7H7.2
		L8,49.3h14.9l0.5-3h6l-0.5,3h14.9l-0.8,4.7h-7.5c0.3,0.2,0.7,0.5,1.2,0.9c1.6,1.2,3.3,2.5,5.2,3.8l-4.3,3.3h0.9l-2.6,14.6
		c-0.4,3.6-2.7,5.4-6.7,5.6c-2,0-4.5,0-7.5,0l-0.4-4.5c1.6,0.1,3.6,0.2,6,0.2c1.5,0.1,2.3-0.3,2.3-1.3H12.7L11.7,82.1z M13.6,71
		l-0.3,1.7h17l0.3-1.7H13.6z M14.6,65.8l-0.3,1.7h17l0.3-1.7H14.6z M19.4,56.5c4.8,0,8.4,0,10.7-0.2l-2.9-2.4h-4.4L19.4,56.5z"/>
</g>
<path class="st0" d="M95.1,38c-0.8-0.5-1.7-0.8-2.4-0.8c-0.4,0-1,0.1-1.5,0.2c-0.6,0.2-1.1,0.5-1.6,0.9c-0.5,0.5-0.9,1.1-1.2,2
	c-0.4,0.9-0.7,2-1.1,3.3l-4,14.4l-1.7,6.2c-0.2,0.8-0.2,1.4-0.2,1.9c0.1,0.7,0.3,1.3,0.7,1.7c0.1,0.2,0.5,0.5,0.9,0.9
	c0.6,0.5,1.1,0.7,1.7,0.7c0.5,0,1.2-0.2,1.9-0.5c0.8-0.3,1.4-0.8,1.9-1.6c0.8-1.1,1.2-2,1.4-2.8l0-0.2l-0.1-0.1c0,0,0,0,0-0.1
	c0-0.1,0-0.1,0-0.2c0,0,0-0.1,0-0.1l0-0.1l0-0.1c0-0.1,0-0.2,0-0.3c0-0.1,0-0.2,0-0.3c0-0.1,0-0.2,0-0.2l0,0v0c0-0.7,0.1-1.3,0.2-2
	c0-0.1,0-0.2,0.1-0.3c0.1-0.4,0.2-1.1,0.5-2.2l1.3-4.8c0.3-1,0.6-2,0.9-3.2c0.2-0.6,0.3-1.1,0.5-1.6c0.1-0.3,0.2-0.6,0.3-0.9
	l0.2-0.9c0.1-0.3,0.3-0.8,0.5-1.2c0.1-0.4,0.3-0.8,0.5-1.3c0.1-0.4,0.3-0.8,0.4-1c0.2-0.5,0.4-1,0.7-1.6c0.1-0.3,0.2-0.6,0.2-0.7
	c0-0.1,0.1-0.2,0.1-0.3c0.1-0.5,0.1-1.1-0.3-1.8C95.9,38.7,95.6,38.3,95.1,38"/>
<path class="st0" d="M122.6,35.7c-1.5,0-2.9,0.3-4.5,0.9c-1.1,0.4-2.2,1-3.4,1.9c0.1-0.5,0.3-1,0.5-1.5c0.1-0.5,0.3-1,0.4-1.5
	c0.2-0.6,0.4-1.2,0.6-1.9c0.3-1.1,0.7-2.4,1.1-3.7l1-3.7c0.4-1.5,0.8-2.5,1.2-3.2c0.3-0.5,0.5-0.9,0.6-1.2c0-0.1,0.1-0.3,0.2-0.4
	c0.1-0.1,0.1-0.2,0.1-0.3c0.2-0.8-0.2-1.4-1.1-2c-0.9-0.4-1.7-0.5-2.4-0.5c-0.9,0-2.1,0.4-3.7,1.3c-0.8,0.5-1.3,0.8-1.8,1.2
	c-0.6,0.5-0.9,0.9-1,1.4c-0.1,0.5-0.1,1.1,0,1.7c-0.1,0.6-0.2,1.2-0.4,2.1c-0.2,1-0.4,2-0.5,2.9l-0.1,0.4c-0.3,1.2-0.5,2.4-0.8,3.6
	c-0.2,0.8-0.4,1.4-0.5,1.9c-0.1,0.3-0.1,0.6-0.2,0.8c0,0.1-0.1,0.3-0.2,0.6c-0.2,0.5-0.4,1.3-0.7,2.4c-0.5,1.5-1,3.3-1.6,5.3l0,0.2
	c-0.6,2-1.2,3.8-1.7,5.7c-0.6,2-1,3.5-1.3,4.7c-0.2,0.8-0.5,1.8-0.7,2.9c-0.3,1.3-0.7,2.5-0.9,3.7c-0.3,1.3-0.6,2.4-0.7,3.1
	c-0.2,0.7-0.3,1.2-0.3,1.5c-0.2,0.9-0.3,1.7-0.2,2.3c0,0.7,0.2,1.3,0.7,1.8c0.7,0.8,1.5,1.1,2.5,1.1c0.5,0,1.1-0.1,1.7-0.3
	c0.5-0.2,1-0.5,1.7-1.2c0.4-0.4,0.8-1.1,1.1-1.8l0.1-0.2c0.1-0.3,0.2-0.5,0.3-0.8c0.6,0.9,1.5,1.5,2.8,1.9c1.4,0.6,3,0.8,4.8,0.8
	c2.5,0,4.7-0.6,6.7-1.8c1.9-1.2,3.6-2.6,5.1-4.4c1.4-1.8,2.7-3.7,3.7-5.8c0.9-2,1.7-3.9,2.1-5.8c1.3-4.8,1.1-8.7-0.7-11.6
	C130.5,37.2,127.2,35.7,122.6,35.7 M124.8,51.2c-1.2,4.3-2.7,7.5-4.4,9.5c-1.7,2-3.6,3-5.7,3c-2.2,0-3.6-0.8-4.2-2.4s-0.6-3.9,0.2-7
	c0.3-1.2,0.8-2.5,1.4-3.9c0.6-1.3,1.4-2.5,2.5-3.8c0.9-1.1,2.1-2.1,3.3-2.9c1.3-0.8,2.6-1.2,4.1-1.2c1.5,0,2.6,0.7,3.2,1.9
	C125.8,45.7,125.6,48,124.8,51.2"/>
<path class="st0" d="M167.2,41.6c-0.8-1.4-1.8-2.6-3.2-3.5c-1.4-0.9-3.3-1.3-5.5-1.3c-1.1,0-2.6,0.2-4.8,0.6c-2.1,0.5-4.1,1.1-5.9,2
	c-1.8,0.9-3.2,1.8-4.4,2.6c-1.4,1-2.3,2.1-2.7,3.4c-0.3,1-0.2,1.9,0.3,2.6c0.5,0.8,1.3,1.2,2.5,1.2c0.6,0,1.1-0.1,1.5-0.3
	c0.4-0.1,0.7-0.3,1.1-0.6l0.3-0.2c0.1-0.1,0.1-0.1,0.2-0.2c0.1-0.1,0.3-0.2,0.4-0.3c0.1-0.1,0.1-0.1,0.2-0.2
	c0.1-0.1,0.3-0.2,0.4-0.3c0.1-0.1,0.1-0.1,0.2-0.2c0.1-0.1,0.3-0.2,0.4-0.3c0.2-0.1,0.4-0.3,0.7-0.5c1.1-0.8,2.1-1.5,3.1-2
	c1.3-0.6,2.7-0.9,4.2-0.9c0.8,0,1.6,0.2,2.2,0.5c0.6,0.4,1.1,0.9,1.4,1.3c0.3,0.7,0.5,1.4,0.6,2c0,0.7,0,1.4-0.1,2
	c-0.6,0.1-1.3,0.1-2.1,0.2c-0.6,0-1.2,0.1-1.9,0.2c-1.7,0.2-3.4,0.5-5.2,0.9c-1.8,0.4-3.6,0.8-5.3,1.3c-1.8,0.6-3.4,1.3-4.9,2.1
	c-1.6,0.9-2.9,1.9-3.9,3c-1.2,1.2-1.9,2.5-2.3,3.9c-0.4,1.5-0.4,2.7,0,3.7c0.4,1.1,1.1,2,2.1,2.7c0.9,0.7,2.2,1.3,3.8,1.8
	c1.3,0.4,2.9,0.6,5.1,0.6c1.7,0,3.4-0.2,5.2-0.7c1.5-0.4,3-1,4.5-1.9c-0.2,1.2-0.2,2.1,0.1,2.8c0.3,1.1,1.3,1.7,2.9,1.7
	c0.8,0,1.5-0.2,2.2-0.5c0.6-0.3,1.1-0.6,1.5-1.1c0.4-0.5,0.7-0.9,1-1.6c0.1-0.2,0.1-0.5,0.2-0.7c0.1-0.3,0.2-0.6,0.3-0.8
	c0.1-0.4,0.2-0.9,0.3-1.3c0.1-0.4,0.2-0.8,0.3-1.3l0.7-2.6c0.4-1.7,0.8-3.3,1.2-4.9c0.4-1.5,0.8-3.2,1.2-4.8
	c0.4-1.7,0.7-3.4,0.6-5.2C168.3,44.7,167.9,43.2,167.2,41.6 M159.1,55l-1.3,4.7c-1.4,1.3-3,2.3-4.6,3c-1.8,0.7-3.6,1-5.4,1
	c-0.7,0-1.2-0.1-1.7-0.3c-0.5-0.1-0.9-0.3-1.3-0.7c-0.4-0.3-0.7-0.6-0.9-1c-0.2-0.3-0.2-0.7,0-1.2c0.3-1.2,1.1-2.1,2.3-2.7
	c1.4-0.8,2.8-1.4,4.2-1.8c1.6-0.4,3.3-0.7,5-0.8C156.7,55.1,158,55,159.1,55"/>
<path class="st0" d="M253.3,42.5c-0.8-1.4-2-2.6-3.7-3.7c-1.4-0.7-2.8-1.3-4.4-1.7c-1.8-0.4-3.5-0.6-5-0.6c-1.9,0-3.8,0.6-5.6,1.8
	c-2,1.3-3.8,2.8-5.5,4.6c-1.9,2-3.4,4.1-4.6,6.2c-1.3,2.3-2.3,4.5-2.9,6.8c-0.5,1.8-0.7,3.5-0.6,5.2c0.1,1.9,0.5,3.4,1.4,4.7
	c0.9,1.4,2.2,2.5,3.9,3.3c1.7,0.8,4,1.2,6.7,1.2c1.3,0,2.8-0.1,4.9-0.4c1.7-0.3,3.4-0.7,5.1-1.3c1.6-0.5,3.1-1.2,4.3-2.1
	c1.3-1,2.1-1.9,2.4-3.1c0.1-0.5,0.1-1.2-0.7-1.9c-0.7-0.4-1.3-0.6-2-0.6c-0.1,0-0.3,0-0.6,0.1l-0.3,0.1c-0.4,0.1-0.7,0.3-1,0.4
	l-0.4,0.2c-1.4,0.9-2.9,1.6-4.6,2.1c-1.6,0.7-3.3,1-4.9,1c-2.5,0-4.1-0.8-4.9-2.4c-0.8-1.5-1-3.4-0.6-5.6c0.7,0.4,1.5,0.8,2.3,1
	c0.9,0.3,2.2,0.5,3.8,0.5c2.1,0,3.9-0.2,5.8-0.8c2.1-0.6,3.9-1.4,5.4-2.3c1.6-0.9,3-2,4.2-3.2c1.2-1.2,2-2.6,2.4-3.9
	C254.2,46,254.1,44.2,253.3,42.5 M237.1,52.8c-1.8,0-3-0.3-3.7-0.9c-0.7-0.5-1.1-1.1-1.2-1.9c1-2,2.4-3.7,4-5.2
	c1.6-1.4,3.1-2.1,4.5-2.1c0.8,0,1.6,0.1,2.5,0.3c0.8,0.2,1.4,0.6,2.1,1c0.6,0.5,1,1,1.3,1.6c0.3,0.7,0.3,1.4,0.1,2.2
	c-0.2,0.6-0.6,1.2-1.1,1.8c-0.8,0.7-1.5,1.2-2.3,1.6c-0.9,0.4-1.9,0.8-2.9,1C239.1,52.7,238.1,52.8,237.1,52.8"/>
<path class="st0" d="M224.9,23c-1.1-0.9-2.1-1-2.6-1c-0.6,0-1.2,0.2-2,0.3c-0.9,0.2-1.7,0.5-2.3,0.8c-1.2,0.7-2.5,2.1-3.9,3.8
	c-1.6,1.8-3.1,3.9-4.6,6c-1.4,2-3,4.4-4.8,7.3c-0.5,0.8-1.1,1.7-1.6,2.5c-1.1,1.8-2.1,3.4-3.1,5c-0.6,1-1.2,2-1.8,2.8
	c-0.8,1.2-1.5,2.3-2.1,3.3c-0.8,1.3-1.6,2.5-2.3,3.4c-0.8-2.6-1.4-5.4-1.8-8.3c-0.4-2.9-0.6-5.7-0.5-8.6c0-2.8,0.2-5.8,0.6-8.9
	c0.1-1,0.3-2.2,0.6-3.3c0.2-1.2,0.4-2.3,0.4-3.4c0-0.5-0.1-1-0.5-1.5c-0.3-0.4-0.7-0.7-1.2-1c-0.5-0.2-0.9-0.4-1.4-0.5l-0.1,0
	c-0.5-0.1-1-0.1-1.4-0.1c-1.3,0-2.3,0.3-2.9,0.8c-0.6,0.5-1,1.2-1.2,2.1l-0.4,1.3l-0.1,0.1l-0.1,0.3c-1.7,3.5-3.2,7.3-4.6,11.4
	c-1.4,4-2.7,8.3-4,13.2l-1.2,4.6c-0.3,1-0.4,1.9-0.6,2.8c-0.3,1-0.5,2-0.7,2.9c-0.3,1.4-0.6,2.7-0.7,4c-0.1,1-0.2,1.7-0.1,2.1
	c0.1,1.5,0.9,2.3,2.4,2.3c0.3,0,0.7,0,1.2-0.2c0.5-0.1,1-0.2,1.5-0.4c0.5-0.2,1-0.5,1.4-0.8c0.4-0.3,0.7-0.6,0.9-1.2
	c0.1-0.4,0.1-0.7,0.2-1.1l0-0.2c0-0.3,0-0.6,0-1.1c-0.1-0.7-0.1-1.4,0-2.1c0.1-1.4,0.5-3.4,1.2-6.4c0.6-2.9,1.5-6.2,2.6-10
	c0.4-1.4,0.7-2.8,1.2-4.2c0.2-0.6,0.4-1.3,0.6-1.9c0,0.9,0,1.8,0,2.7c-0.1,1.6,0,3.3,0.1,5.3c0.2,3.5,0.7,6.7,1.5,9.8
	c0.7,3.2,1.8,5.9,3.2,8.1c0.4,0.9,1.2,1.3,2.4,1.3c0.7,0,1.3-0.2,1.9-0.5c0.6-0.3,1.2-0.8,1.6-1.2c0.4-0.3,0.9-0.9,1.6-2l0.1-0.1
	c0.6-0.8,1.1-1.7,1.8-2.7l1.8-2.8l0.4-0.6c0.3-0.6,0.6-1,0.9-1.4l6.5-10.7c1.6-2.7,3.5-5.5,5.5-8.4c-0.4,1-0.7,2.1-1.1,3
	c-0.6,1.8-1.2,3.7-1.7,5.5l-1.6,5.8c-0.3,1.1-0.6,2.2-0.8,3.2l-0.7,2.5c-0.1,0.4-0.3,1.2-0.5,2.1c-0.3,1-0.5,2.1-0.6,3.2
	c-0.2,1.1-0.4,2.3-0.5,3.3c-0.2,1.2-0.3,2-0.1,2.6c0.1,0.8,0.4,1.6,1,2.1c0.5,0.7,1.3,1,2.3,1c0.2,0,0.4,0,0.7-0.1l0.5-0.1
	c0.3-0.1,0.6-0.1,1-0.3c0.2-0.1,0.3-0.2,0.5-0.3c0.1-0.1,0.3-0.2,0.5-0.3c0.3-0.3,0.6-0.6,0.6-1c0.1-0.4,0.1-0.8,0-1.3
	c-0.1-0.2-0.1-0.3,0-0.4l0-0.2l-0.1-0.1c0,0,0-0.2,0-0.2l0-0.1l0-0.1c-0.1-0.9-0.2-1.6-0.1-2.4c0-0.8,0.1-1.6,0.3-2.5
	c0.2-1.4,0.6-2.8,1-4.1c0.3-1.4,0.6-2.8,1-4.3l2.6-9.6c0.7-2.8,1.4-5.1,2.2-7.2c0.8-2.3,1.7-4.6,2.7-6.9c0.1-0.2,0.2-0.5,0.3-0.8
	l0.1-0.2c0.2-0.4,0.4-0.8,0.6-1.3c0.2-0.5,0.3-0.8,0.6-1.2l0-0.1c0.1-0.2,0.1-0.3,0.2-0.5c0.1-0.1,0.1-0.3,0.1-0.4
	c0.1-0.5,0-0.9-0.1-1.2C225.1,23.3,225,23.2,224.9,23"/>
<path class="st0" d="M90.1,26c-2.3,0.5-4.6,0.7-6.3,0.8c-2.1,0.2-4.1,0.4-6.1,0.6l-0.5,1.5c-1,2.9-2,5.7-2.9,8.5
	c-1.2,3.2-2.2,6.5-3.2,10.2l-2,7.5c-0.6,2.2-1.1,4.5-1.5,7.5c0,0.3-0.1,0.7,0,1l0,0v0c0,0.3-0.1,0.7,0,1c-0.1,0.5-0.1,0.8-0.1,1.2
	l0,0.2c0,0.3-0.1,0.7-0.2,1c-0.3,1.1-0.9,1.9-1.9,2.4c-1.1,0.5-2,0.8-2.7,0.8c-0.4,0-0.9-0.1-1.3-0.1c-0.6-0.2-1-0.4-1.3-0.6
	c-0.4-0.1-0.8-0.4-1.1-0.9c-0.3-0.3-0.4-0.8-0.3-1.4c0-0.9,0.2-2.4,0.7-4.7c0.4-2.1,1-4.7,1.8-7.5c1.3-4.9,2.7-9.3,4.1-13.6
	c1.4-4.3,2.9-8.6,4.6-13c-1.1,0.1-2,0.2-3.1,0.2c-1.2,0.1-2.4,0.2-3.7,0.3l-2.5,0.4c-0.9,0.1-1.8,0.2-2.6,0.2c-0.6,0-1-0.1-1.4-0.4
	c-0.5-0.2-1-0.6-1.3-1.1c-0.4-0.4-0.6-0.9-0.8-1.4c-0.2-0.5-0.2-1,0-1.5c0.1-0.5,0.4-0.9,0.8-1.2c0.3-0.3,0.8-0.5,1.2-0.8
	c0.4-0.2,0.9-0.2,1.4-0.3c0.2,0,0.4-0.1,0.6-0.1l0.6-0.1c1.3-0.1,2.5-0.1,3.8-0.2c1.2,0,2.4,0,3.7-0.1c2.9-0.1,5.8-0.4,8.8-0.7
	l0.3,0c3.1-0.2,6.2-0.6,9.2-1.1c0.4-0.1,0.8-0.2,1.2-0.3c0.4-0.1,0.6-0.2,1-0.3l0.2-0.1c0.2-0.1,0.4-0.1,0.7-0.2
	c0.2,0,0.4-0.1,0.6-0.2c0.5-0.1,1-0.2,1.4-0.2c0.4,0,0.8,0.1,1.2,0.2l0.3,0.1l1.2,0.9c0.1,0.1,0.2,0.3,0.3,0.4
	c0.2,0.3,0.4,0.5,0.5,0.8c0.2,0.6,0.2,1.1,0.1,1.6c0,0.1-0.1,0.2-0.1,0.3l-2.1,2.1"/>
<path class="st0" d="M91.7,29.1c0.1-0.4-0.4,0.7-0.5,1.1c-0.4,1.6-0.1,2.9,1,3.9c0.9,0.9,2.1,1.4,3.6,1.4c1.3,0,2.5-0.3,3.5-1.1
	c1.1-0.8,1.8-1.8,2.1-3.2c0.4-1.5,0.2-2.7-0.8-3.8c-0.5-0.5-1.1-0.8-1.6-1.1c-1.9-0.7-3.6-0.5-5.6,0.8
	C93.3,27.2,91.8,28.5,91.7,29.1z"/>
</svg>
