<svg width="60" height="60" viewBox="0 0 60 60" fill="none" xmlns="http://www.w3.org/2000/svg">
<path d="M5 22.5C5 17.785 5 15.43 6.465 13.965C7.93 12.5 10.285 12.5 15 12.5H45C49.715 12.5 52.07 12.5 53.535 13.965C55 15.43 55 17.785 55 22.5C55 23.6775 55 24.2675 54.635 24.635C54.2675 25 53.675 25 52.5 25H7.5C6.3225 25 5.7325 25 5.365 24.635C5 24.2675 5 23.675 5 22.5Z" fill="black"/>
<path fill-rule="evenodd" clip-rule="evenodd" d="M5 45C5 49.715 5 52.07 6.465 53.535C7.93 55 10.285 55 15 55H45C49.715 55 52.07 55 53.535 53.535C55 52.07 55 49.715 55 45V32.5C55 31.3225 55 30.7325 54.635 30.365C54.2675 30 53.675 30 52.5 30H7.5C6.3225 30 5.7325 30 5.365 30.365C5 30.7325 5 31.325 5 32.5V45ZM17.5 37.5C17.5 36.3225 17.5 35.7325 17.865 35.365C18.2325 35 18.825 35 20 35H25C26.1775 35 26.7675 35 27.135 35.365C27.5 35.7325 27.5 36.3225 27.5 37.5C27.5 38.6775 27.5 39.2675 27.135 39.635C26.7675 40 26.175 40 25 40H20C18.8225 40 18.2325 40 17.865 39.635C17.5 39.2675 17.5 38.675 17.5 37.5ZM17.865 45.365C17.5 45.7325 17.5 46.325 17.5 47.5C17.5 48.675 17.5 49.2675 17.865 49.635C18.2325 50 18.825 50 20 50H25C26.1775 50 26.7675 50 27.135 49.635C27.5 49.2675 27.5 48.675 27.5 47.5C27.5 46.325 27.5 45.7325 27.135 45.365C26.7675 45 26.175 45 25 45H20C18.8225 45 18.2325 45 17.865 45.365ZM32.5 37.5C32.5 36.3225 32.5 35.7325 32.865 35.365C33.2325 35 33.825 35 35 35H40C41.1775 35 41.7675 35 42.135 35.365C42.5 35.7325 42.5 36.3225 42.5 37.5C42.5 38.6775 42.5 39.2675 42.135 39.635C41.7675 40 41.175 40 40 40H35C33.8225 40 33.2325 40 32.865 39.635C32.5 39.2675 32.5 38.675 32.5 37.5ZM32.865 45.365C32.5 45.7325 32.5 46.325 32.5 47.5C32.5 48.675 32.5 49.2675 32.865 49.635C33.2325 50 33.8225 50 35 50H40C41.1775 50 41.7675 50 42.135 49.635C42.5 49.2675 42.5 48.675 42.5 47.5C42.5 46.325 42.5 45.7325 42.135 45.365C41.7675 45 41.175 45 40 45H35C33.8225 45 33.2325 45 32.865 45.365Z" fill="black"/>
<path d="M17.5 7.5V15M42.5 7.5V15" stroke="black" stroke-width="2" stroke-linecap="round"/>
</svg>
