<svg width="60" height="60" viewBox="0 0 60 60" fill="none" xmlns="http://www.w3.org/2000/svg">
<path fill-rule="evenodd" clip-rule="evenodd" d="M55 30C55 43.8075 43.8075 55 30 55C16.1925 55 5 43.8075 5 30C5 16.1925 16.1925 5 30 5C43.8075 5 55 16.1925 55 30ZM20.2775 39.7225C20.0432 39.4881 19.9115 39.1702 19.9115 38.8387C19.9115 38.5073 20.0432 38.1894 20.2775 37.955L28.2325 30L20.2775 22.045C20.0498 21.8092 19.9238 21.4935 19.9267 21.1657C19.9295 20.838 20.061 20.5245 20.2927 20.2927C20.5245 20.061 20.838 19.9295 21.1657 19.9267C21.4935 19.9238 21.8092 20.0498 22.045 20.2775L30 28.2325L37.955 20.2775C38.1908 20.0498 38.5065 19.9238 38.8343 19.9267C39.162 19.9295 39.4755 20.061 39.7073 20.2927C39.939 20.5245 40.0705 20.838 40.0733 21.1657C40.0762 21.4935 39.9502 21.8092 39.7225 22.045L31.7675 30L39.7225 37.955C39.9502 38.1908 40.0762 38.5065 40.0733 38.8343C40.0705 39.162 39.939 39.4755 39.7073 39.7073C39.4755 39.939 39.162 40.0705 38.8343 40.0733C38.5065 40.0762 38.1908 39.9502 37.955 39.7225L30 31.7675L22.045 39.7225C21.8106 39.9568 21.4927 40.0885 21.1613 40.0885C20.8298 40.0885 20.5119 39.9568 20.2775 39.7225Z" fill="#FF0000"/>
</svg>
